#N canvas 2677 218 439 509 10;
#X msg -71 29 devices;
#X obj -71 62 comport 7 115200;
#X msg 50 29 close 7;
#X obj -71 95 sel 13 10;
#X obj -71 128 zl group 100;
#X obj -71 161 iem_alisttosym;
#X obj -71 192 fromsymbol;
#X msg -7 29 open 7;
#X obj 200 122 image pdlogo.gif;
#X msg 28 374 1;
#X obj -68 409 readsf~;
#X obj -68 442 dac~;
#X msg 178 386 1;
#X obj 79 412 readsf~;
#X obj 79 445 dac~;
#X msg -68 376 open kick.wav;
#X msg 79 379 open clap.wav;
#X obj -71 223 unpack f;
#X obj -66 337 bng 15 250 50 0 empty empty empty 17 7 0 10 -262144
-1 -1;
#X obj 80 338 bng 15 250 50 0 empty empty empty 17 7 0 10 -262144 -1
-1;
#X obj 82 274 == 2;
#X obj -70 267 == 1;
#X obj -69 303 sel 1;
#X obj 82 306 sel 1;
#X connect 0 0 1 0;
#X connect 1 0 3 0;
#X connect 2 0 1 0;
#X connect 3 0 4 0;
#X connect 3 2 4 0;
#X connect 4 0 5 0;
#X connect 5 0 6 0;
#X connect 6 0 17 0;
#X connect 7 0 1 0;
#X connect 9 0 10 0;
#X connect 10 0 11 0;
#X connect 10 0 11 1;
#X connect 12 0 13 0;
#X connect 13 0 14 0;
#X connect 13 0 14 1;
#X connect 15 0 10 0;
#X connect 16 0 13 0;
#X connect 17 0 20 0;
#X connect 17 0 21 0;
#X connect 18 0 15 0;
#X connect 18 0 9 0;
#X connect 19 0 16 0;
#X connect 19 0 12 0;
#X connect 20 0 23 0;
#X connect 21 0 22 0;
#X connect 22 0 18 0;
#X connect 23 0 19 0;
